<svg width="634" height="634" viewBox="0 0 634 634" fill="none" xmlns="http://www.w3.org/2000/svg">
<g clip-path="url(#clip0_204_21)">
<rect width="634" height="634" rx="40" fill="black"/>
<path fill-rule="evenodd" clip-rule="evenodd" d="M455 694.393C598.811 694.393 715.393 577.811 715.393 434C715.393 290.189 598.811 173.607 455 173.607C311.189 173.607 194.607 290.189 194.607 434C194.607 577.811 311.189 694.393 455 694.393ZM455 751C630.074 751 772 609.074 772 434C772 258.926 630.074 117 455 117C279.926 117 138 258.926 138 434C138 609.074 279.926 751 455 751Z" fill="white"/>
<path fill-rule="evenodd" clip-rule="evenodd" d="M732.004 333.2C734.526 348.627 724.066 363.178 708.639 365.7C626.773 379.087 555.514 390.747 493.49 400.904C449.774 408.063 429.287 442.72 430.806 478.063C432.312 513.11 455.04 543.737 498.534 544.852C501.94 544.939 505.038 545.651 505.95 545.861L506.007 545.874C507.627 546.245 509.496 546.752 511.382 547.385C512.875 547.887 516.036 549.004 519.282 550.957C520.658 551.785 524.374 554.105 527.68 558.355C531.368 563.097 537.102 574.229 531.463 587.388L471.122 728.185C464.965 742.553 448.326 749.208 433.958 743.051C419.59 736.893 412.934 720.254 419.092 705.887L465.668 597.207C407.499 582.372 376.436 531.331 374.251 480.493C371.714 421.457 407.727 357.588 484.342 345.041C546.371 334.883 617.634 323.222 699.504 309.835C714.931 307.313 729.481 317.774 732.004 333.2Z" fill="white"/>
<path fill-rule="evenodd" clip-rule="evenodd" d="M278.818 383.054C294.449 383.054 307.121 395.725 307.121 411.357C307.121 414.232 307.23 418.178 307.362 422.962C307.932 443.591 308.933 479.81 303.48 513.038C300.072 533.807 293.799 556.346 281.544 575.165C268.727 594.848 249.195 610.516 221.599 614.807C206.153 617.208 191.684 606.634 189.282 591.188C186.881 575.742 197.455 561.273 212.901 558.872C221.994 557.458 228.503 552.883 234.108 544.275C240.276 534.802 244.809 521.001 247.62 503.87C252.07 476.755 251.349 448.613 250.808 427.524C250.654 421.496 250.514 416.044 250.514 411.357C250.514 395.725 263.186 383.054 278.818 383.054Z" fill="white"/>
<path d="M588.027 459.473C588.027 478.231 572.82 493.438 554.062 493.438C535.305 493.438 520.098 478.231 520.098 459.473C520.098 440.715 535.305 425.509 554.062 425.509C572.82 425.509 588.027 440.715 588.027 459.473Z" fill="white"/>
<path fill-rule="evenodd" clip-rule="evenodd" d="M404.054 400.036V142.473H460.661V400.036H404.054Z" fill="white"/>
<path fill-rule="evenodd" clip-rule="evenodd" d="M670.039 266.575L197.438 343.429L188.352 287.555L660.953 210.702L670.039 266.575Z" fill="white"/>
</g>
<defs>
<clipPath id="clip0_204_21">
<rect width="634" height="634" rx="40" fill="white"/>
</clipPath>
</defs>
</svg>
